<svg class="icon" viewBox="0 0 1024 1024" xmlns="http://www.w3.org/2000/svg" width="200" height="200"><defs><style/></defs><path d="M457.2 925.7a54.8 54.8 0 10109.6 0 54.8 54.8 0 10-109.6 0zm319.9-243.1c40.2-40.2 71.2-89.6 89.8-144.6-6.8-6.7-11.9-13.4-14.7-20-105-240.7-550.2-246.2-615.6-353.4-41 44.5-71.3 98.8-87 159 65.2 117 509 152 627.5 359z" fill="#609dff"/><path d="M880 412.4c1.6 3.4 3.8 6.9 6.5 10.5V418c0-208.6-170.6-377.4-379.9-374.5-71.2 1-137.6 22-193.9 57.5 83.7 82.4 463.4 92.9 567.3 311.4zm-737.5 24.1c-1-3.9-2.7-7.8-5-11.8 2.4 139.3 80.9 260.1 195.7 322.5l70.3 42.6c8.6 5.2 17 10.6 25.3 16.4l68.4 47.8c4.1 3 9.3 4.8 14.8 4.8 5.4 0 10.4-1.8 14.5-4.8l55.7-41.1c13.9-10.2 28.3-19.6 43.2-28.3l66.5-38.5C583.7 569.6 167.5 537.5 142.5 436.5z" fill="#a4c7ff"/></svg>