<svg class="icon" viewBox="0 0 1024 1024" xmlns="http://www.w3.org/2000/svg" width="200" height="200"><defs><style/></defs><path d="M896.305 427.593H465.084c-20.696 0-37.49 16.795-37.49 37.491l-.027 93.753c0 20.696 16.768 37.49 37.49 37.517h262.514c20.696 0 37.49 16.794 37.49 37.49v18.746a112.498 112.498 0 01-112.498 112.498h-356.24a37.49 37.49 0 01-37.49-37.49V371.383A112.498 112.498 0 01371.33 258.886l524.895-.027c20.696 0 37.49-16.768 37.49-37.464l.08-93.753h.026a37.49 37.49 0 00-37.464-37.517h-.026l-524.948.026C216.069 90.151 90.15 216.07 90.15 371.384v524.948c0 20.696 16.795 37.49 37.491 37.49H680.72a253.101 253.101 0 00253.101-253.101v-215.61c0-20.697-16.794-37.491-37.49-37.491z"/></svg>