<svg class="icon" viewBox="0 0 1024 1024" xmlns="http://www.w3.org/2000/svg" width="200" height="200"><defs><style/></defs><path d="M277.845 85.419c.896 2.901-.682 5.12-1.45 7.338-5.035 14.848-10.496 29.526-15.19 44.459-6.4 20.565-12.33 41.344-18.432 62.037-.512 1.707-.768 3.499-1.237 5.675 1.493.341 2.688.768 3.925.853h246.443c2.688 0 5.376 0 8.021.086a17.237 17.237 0 0114.592 8.362c2.262 3.627 4.31 7.552 5.547 11.606 4.181 14.336 4.95 29.056 3.968 43.946-.043.598-.47 1.238-.81 2.006-5.505.853-11.094.298-16.598.426l-8.021.043H380.928c-1.877 0-3.84.085-5.803.256-.128 2.39-.384 4.395-.384 6.4-.213 22.741-.128 45.483-.597 68.267-.64 28.842-1.621 57.728-2.688 86.613-.597 16.81-1.707 33.621-2.56 50.432-.128 1.792 0 3.584 0 5.163 2.603 1.664 5.12 1.024 7.552 1.024h138.624c1.536 0 3.115.128 4.693 0a11.435 11.435 0 0110.667 5.802 41.813 41.813 0 014.864 9.643c1.792 5.632 3.157 11.392 4.352 17.152 2.219 10.71 2.645 21.675 3.328 32.555.085 1.28-.128 2.645-.213 4.394-1.536.171-2.774.427-4.054.512l-2.986.043H371.968c-2.645 0-5.376-.427-8.277.683-.256 1.706-.726 3.413-.854 5.205a522.667 522.667 0 01-19.882 106.368c-.427 1.493-.64 3.115-.939 4.65l-.427 1.58 1.536-.3c6.144-4.863 12.374-9.685 18.518-14.591 5.802-4.608 11.52-9.302 17.322-13.952 1.238-.982 2.518-1.835 4.054-2.987 1.749 1.707 3.413 3.2 4.864 4.864 15.274 17.237 30.677 34.304 45.653 51.797 17.792 20.694 35.157 41.814 52.907 62.592 6.144 7.254 10.154 15.403 12.672 24.491 2.474 9.045 3.626 18.304 3.882 27.648.683 22.912-2.773 45.355-8.106 67.499-.256.853-.768 1.621-1.366 2.944-1.493-1.579-2.73-2.688-3.84-4.011l-57.344-70.357-90.709-111.318c-1.365-1.706-2.475-3.754-4.48-4.693-1.75.768-1.45 2.39-1.877 3.541-.427 1.067-.64 2.134-.939 3.286a590.848 590.848 0 01-26.667 77.866c-14.549 34.134-32.128 66.518-54.528 96-2.346 3.072-4.821 5.974-7.168 9.046-13.738 17.92-31.658 29.866-52.224 37.973a168.96 168.96 0 01-101.248 8.021c-2.304-.512-4.565-1.322-7.168-2.133 1.28-2.645 3.328-3.67 4.992-5.035 19.2-15.616 37.547-32.213 54.87-50.005 38.826-39.85 71.253-84.437 95.914-134.784 20.139-41.173 34.347-84.395 42.411-129.664 2.56-14.293 4.267-28.757 6.272-43.179.427-2.645.427-5.376.555-8.362-1.707-.256-2.944-.598-4.224-.683h-6.016l-172.118-.043c-2.645 0-5.333.555-7.978-.768.042-1.194 0-2.346.213-3.413 2.645-12.501 5.973-24.747 11.52-36.267 2.56-5.29 5.632-10.325 8.832-15.232a34.261 34.261 0 019.472-9.514 24.533 24.533 0 0114.421-4.822h143.958c2.602 0 5.29.299 8.106-.597.256-1.11.64-2.176.726-3.243.256-3.413.469-6.826.597-10.24.597-23.466 1.195-46.848 1.707-70.272.853-39.381 1.621-78.72 2.389-118.101.085-4.95.427-9.941-.213-15.19-1.323-.213-2.39-.554-3.414-.554h-77.653c-.64 0-1.28.213-2.347.341-.597 1.494-1.365 3.115-1.962 4.779l-11.947 34.048c-.853 2.347-1.75 4.693-2.987 6.827-18.858 33.408-46.933 53.504-84.096 60.33-5.973 1.11-11.946 1.664-17.92 2.432-.853.086-1.706-.128-2.986-.213.64-1.75 1.066-3.243 1.706-4.65 29.739-61.526 53.59-125.44 74.795-190.507l10.667-32.299c10.325-30.805 31.146-50.773 61.013-61.568 9.045-3.243 18.432-5.205 27.99-6.357 1.706-.171 3.54 0 5.247 0zM935.98 194.56c.64 0 1.28.299 2.133.555.17.853.512 1.706.512 2.56l.043 641.962c-2.091 1.963-4.182 1.451-6.102 1.451h-42.837c-29.696 0-59.392.085-89.088-.043a20.821 20.821 0 00-11.861 3.499c-36.651 23.552-73.302 46.933-109.995 70.4-2.005 1.28-3.925 2.901-6.699 3.584-3.285-8.448-5.12-17.067-7.68-25.515-2.56-8.49-4.864-17.066-7.338-25.557-2.432-8.49-4.95-16.939-7.424-25.387-2.56-1.408-5.035-.938-7.424-.938h-52.907c-2.39 0-4.821-.171-7.68-.214-.213-1.706-.427-2.944-.512-4.224-.085-1.792 0-3.626 0-5.461V195.456c1.408-.47 2.048-.853 2.645-.853H935.98zm-277.547 70.4c-1.28.085-2.56.341-3.712.512-1.067 7.381-1.621 475.99-.683 511.232.043 1.323.299 2.645.427 4.31 11.435.938 22.613-.171 34.005.767.768 2.304 1.536 4.438 2.134 6.614l11.093 39.466c.555 1.92.81 4.011 2.517 5.974 2.219-1.366 4.352-2.56 6.4-3.926 23.126-15.061 46.294-30.08 69.376-45.269a19.37 19.37 0 0111.307-3.328c22.4.17 44.8.085 67.243.085h8.106c.086-3.754.214-6.485.214-9.258V274.475c0-1.622.085-3.243 0-4.864-.086-1.366-.342-2.646-.598-4.438-2.901-.042-5.546-.17-8.192-.17H658.432z"/></svg>